<svg xmlns="http://www.w3.org/2000/svg" viewBox="0 0 200 200" width="200" height="200">
  <!-- Background -->
  <rect x="0" y="0" width="200" height="200" fill="#F8F9FA" opacity="0" />
  
  <!-- CSS Document -->
  <rect x="40" y="40" width="120" height="140" rx="5" ry="5" fill="white" stroke="#264DE4" stroke-width="2" />
  
  <!-- CSS3 Logo -->
  <path d="M70 60 L65 130 L100 140 L135 130 L130 60 Z" fill="#264DE4" />
  <path d="M100 70 L100 130 L130 120 L125 70 Z" fill="#2965F1" />
  
  <!-- CSS Text -->
  <text x="100" y="100" font-family="Arial, sans-serif" font-size="30" font-weight="bold" fill="white" text-anchor="middle" dominant-baseline="middle">CSS</text>
  
  <!-- Style Rules -->
  <rect x="50" y="150" width="100" height="2" rx="1" ry="1" fill="#333" opacity="0.7" />
  <rect x="60" y="160" width="80" height="2" rx="1" ry="1" fill="#333" opacity="0.7" />
  <rect x="60" y="170" width="70" height="2" rx="1" ry="1" fill="#333" opacity="0.7" />
  <rect x="50" y="180" width="10" height="2" rx="1" ry="1" fill="#333" opacity="0.7" />
  
  <!-- Decorative Elements -->
  <circle cx="30" y="30" r="10" fill="#264DE4" opacity="0.3" />
  <circle cx="170" y="170" r="15" fill="#264DE4" opacity="0.3" />
</svg>