<svg xmlns="http://www.w3.org/2000/svg" viewBox="0 0 200 200" width="200" height="200">
  <!-- Background -->
  <rect x="0" y="0" width="200" height="200" fill="#F8F9FA" opacity="0" />
  
  <!-- Desktop -->
  <rect x="40" y="60" width="120" height="80" rx="3" ry="3" fill="#4A6CF7" />
  <rect x="45" y="65" width="110" height="65" rx="1" ry="1" fill="white" />
  <rect x="80" y="140" width="40" height="10" rx="1" ry="1" fill="#4A6CF7" />
  <rect x="70" y="150" width="60" height="3" rx="1" ry="1" fill="#4A6CF7" />
  
  <!-- Tablet -->
  <rect x="30" y="90" width="40" height="60" rx="3" ry="3" fill="#6FCF97" />
  <rect x="33" y="95" width="34" height="45" rx="1" ry="1" fill="white" />
  <circle cx="50" y="145" r="2" fill="white" />
  
  <!-- Mobile -->
  <rect x="140" y="100" width="25" height="45" rx="3" ry="3" fill="#F2994A" />
  <rect x="142" y="105" width="21" height="30" rx="1" ry="1" fill="white" />
  <circle cx="152.5" y="140" r="2" fill="white" />
  
  <!-- Responsive Design Elements -->
  <rect x="60" y="80" width="80" height="5" rx="2.5" ry="2.5" fill="#4A6CF7" opacity="0.7" />
  <rect x="60" y="90" width="60" height="5" rx="2.5" ry="2.5" fill="#4A6CF7" opacity="0.7" />
  <rect x="60" y="100" width="70" height="5" rx="2.5" ry="2.5" fill="#4A6CF7" opacity="0.7" />
  <rect x="60" y="110" width="50" height="5" rx="2.5" ry="2.5" fill="#4A6CF7" opacity="0.7" />
  
  <rect x="40" y="105" width="20" height="3" rx="1.5" ry="1.5" fill="#6FCF97" opacity="0.7" />
  <rect x="40" y="112" width="15" height="3" rx="1.5" ry="1.5" fill="#6FCF97" opacity="0.7" />
  <rect x="40" y="119" width="18" height="3" rx="1.5" ry="1.5" fill="#6FCF97" opacity="0.7" />
  <rect x="40" y="126" width="12" height="3" rx="1.5" ry="1.5" fill="#6FCF97" opacity="0.7" />
  
  <rect x="147" y="110" width="12" height="2" rx="1" ry="1" fill="#F2994A" opacity="0.7" />
  <rect x="147" y="115" width="10" height="2" rx="1" ry="1" fill="#F2994A" opacity="0.7" />
  <rect x="147" y="120" width="11" height="2" rx="1" ry="1" fill="#F2994A" opacity="0.7" />
  <rect x="147" y="125" width="8" height="2" rx="1" ry="1" fill="#F2994A" opacity="0.7" />
  
  <!-- Decorative Elements -->
  <circle cx="30" y="30" r="10" fill="#4A6CF7" opacity="0.3" />
  <circle cx="170" y="170" r="15" fill="#4A6CF7" opacity="0.3" />
</svg>